<svg width="17" height="17" viewBox="0 0 17 17" fill="none" xmlns="http://www.w3.org/2000/svg">
<path d="M7.4375 4.25H14.3437M7.4375 4.25C7.4375 4.53179 7.32556 4.80204 7.1263 5.0013C6.92704 5.20056 6.65679 5.3125 6.375 5.3125C6.09321 5.3125 5.82296 5.20056 5.6237 5.0013C5.42444 4.80204 5.3125 4.53179 5.3125 4.25M7.4375 4.25C7.4375 3.96821 7.32556 3.69796 7.1263 3.4987C6.92704 3.29944 6.65679 3.1875 6.375 3.1875C6.09321 3.1875 5.82296 3.29944 5.6237 3.4987C5.42444 3.69796 5.3125 3.96821 5.3125 4.25M5.3125 4.25H2.65625M7.4375 12.75H14.3437M7.4375 12.75C7.4375 13.0318 7.32556 13.302 7.1263 13.5013C6.92704 13.7006 6.65679 13.8125 6.375 13.8125C6.09321 13.8125 5.82296 13.7006 5.6237 13.5013C5.42444 13.302 5.3125 13.0318 5.3125 12.75M7.4375 12.75C7.4375 12.4682 7.32556 12.198 7.1263 11.9987C6.92704 11.7994 6.65679 11.6875 6.375 11.6875C6.09321 11.6875 5.82296 11.7994 5.6237 11.9987C5.42444 12.198 5.3125 12.4682 5.3125 12.75M5.3125 12.75H2.65625M11.6875 8.5H14.3437M11.6875 8.5C11.6875 8.78179 11.5756 9.05204 11.3763 9.2513C11.177 9.45056 10.9068 9.5625 10.625 9.5625C10.3432 9.5625 10.073 9.45056 9.8737 9.2513C9.67444 9.05204 9.5625 8.78179 9.5625 8.5M11.6875 8.5C11.6875 8.21821 11.5756 7.94796 11.3763 7.7487C11.177 7.54944 10.9068 7.4375 10.625 7.4375C10.3432 7.4375 10.073 7.54944 9.8737 7.7487C9.67444 7.94796 9.5625 8.21821 9.5625 8.5M9.5625 8.5H2.65625" stroke="black" stroke-width="0.8" stroke-linecap="round" stroke-linejoin="round"/>
</svg>
