<svg width="93" height="97" viewBox="0 0 93 97" fill="none" xmlns="http://www.w3.org/2000/svg">
<path fill-rule="evenodd" clip-rule="evenodd" d="M23.2662 67.6147C23.6268 67.9595 23.0546 74.7517 23.1487 76.9188C23.2663 79.6275 23.8551 84.9273 25.3862 87.6361C26.9172 90.3449 31.6282 95.998 36.5747 96.4691C41.5211 96.9402 45.2899 92.1115 45.8788 91.0516C46.4676 89.9916 47.7631 86.2228 47.6454 83.3963C47.5511 81.135 46.9764 80.4529 47.7731 80.0892C48.5698 79.7256 50.3098 81.7473 50.6909 82.0674C51.0721 82.3876 55.5045 85.282 57.3179 86.6667C59.0653 87.9855 62.1626 90.6977 65.7746 90.722C69.3866 90.7463 72.3371 90.7395 73.7368 90.6231C75.1366 90.5067 80.799 89.0405 82.1441 87.0624C83.4893 85.0842 83.5698 84.6452 83.1332 82.2652C82.6966 79.8853 79.3425 77.9953 78.435 77.4187C77.5276 76.8421 71.5279 73.5777 69.5826 72.4237C69.5826 72.4237 65.367 70.728 65.379 69.951C65.391 69.174 68.7175 68.9945 69.3848 68.863C70.0521 68.7315 76.7536 67.3299 78.7318 66.4397C80.71 65.5495 87.4853 61.6921 88.4744 60.2085C89.4635 58.7248 91.7384 56.3014 92.134 54.7188C92.4505 53.4528 91.9604 51.3486 91.59 50.9605C91.2196 50.5724 90.0704 49.8047 87.7325 49.8722C85.3947 49.9397 76.803 50.8616 75.3194 50.9111C73.8357 50.9605 68.3957 51.7518 66.7143 51.9001C65.3691 52.0188 63.1499 52.6828 62.9062 51.9001C62.6626 51.1175 66.7736 47.2712 67.2088 46.3612C67.7528 45.2238 70.5717 40.6736 70.9674 38.8438C71.363 37.014 73.1878 31.4916 71.0168 29.9914C68.8458 28.4911 63.6975 29.9419 60.7302 30.5354C58.5707 31.3432 53.7571 33.2258 51.7789 34.294C49.8007 35.3623 48.4566 37.3592 47.2785 36.6184C46.1005 35.8776 46.1775 27.4667 45.7949 26.0845C45.4123 24.7024 42.8771 16.2926 39.9098 13.2264C37.5359 10.7735 36.7776 10.7865 36.6952 11.0997C36.1017 10.8689 34.6379 11.1591 33.5301 14.166C32.4223 17.1728 31.7827 20.4632 31.6014 21.7326C31.6014 21.7326 31.2312 24.9896 30.6113 24.9936C29.9915 24.9975 27.3414 14.5047 26.9259 13.0644C26.5989 11.931 24.1337 2.0001 21.4137 0.318633C19.2377 -1.02654 17.5184 2.2021 17.3244 4.14205C16.8967 8.28105 17.4392 14.6722 17.5184 15.78C17.6173 17.1647 19.6305 25.3211 18.7926 25.7877C17.9548 26.2544 13.1548 17.331 12.6602 16.6386C12.1657 15.9462 8.30809 8.37963 5.29135 8.82472C2.87795 9.1808 2.70333 13.5559 2.91769 15.6989C3.16501 17.9574 3.80803 22.8699 4.40149 24.4524C5.14331 26.4306 6.62695 30.8321 8.16005 33.0576C9.38653 34.8379 12.034 38.9427 13.2044 40.7725C13.3693 41.4979 13.6001 43.0277 13.2044 43.3442C12.7099 43.7398 5.39059 49.2293 3.5113 51.9493C1.63202 54.6693 0.148377 57.5871 0.0989224 59.5653C0.0593586 61.1479 0.0164892 64.7086 0 66.2912C0.329641 68.4013 1.58238 72.9775 3.95621 74.4018C6.33004 75.8261 10.8799 73.6105 12.8581 72.3247C15.3308 71.0388 20.5655 67.9861 20.9192 67.7748C21.2729 67.5635 22.9055 67.2699 23.2662 67.6147ZM40.9828 47.7608C40.0841 46.7585 39.0127 44.4082 36.7315 44.3736C33.8281 44.5119 32.9041 46.0801 31.7197 47.7263C30.8899 48.8797 30.3222 52.81 30.5446 53.9477C30.933 55.9353 32.9594 58.1564 34.6231 59.0632C35.9 59.7591 38.8566 59.9956 40.9828 59.6507C43.3111 59.0101 44.2871 56.2981 44.37 54.2242C44.4729 51.6529 41.9232 48.8095 41.0049 47.7855L40.9828 47.7608Z" fill="black"/>
</svg>
